<svg width="23" height="22" viewBox="0 0 23 22" fill="none" xmlns="http://www.w3.org/2000/svg"><path d="M20.8758 11.2137C20.8758 10.4224 20.8103 9.84485 20.6685 9.24597H11.4473V12.8179H16.8599C16.7508 13.7055 16.1615 15.0424 14.852 15.9406L14.8336 16.0602L17.7492 18.2737L17.9512 18.2935C19.8063 16.6144 20.8758 14.144 20.8758 11.2137Z" fill="#4285F4"></path><path d="M11.4467 20.625C14.0984 20.625 16.3245 19.7694 17.9506 18.2936L14.8514 15.9408C14.022 16.5076 12.9089 16.9033 11.4467 16.9033C8.84946 16.9033 6.64512 15.2243 5.85933 12.9036L5.74415 12.9131L2.7125 15.2125L2.67285 15.3205C4.28791 18.4647 7.60536 20.625 11.4467 20.625Z" fill="#34A853"></path><path d="M5.86006 12.9036C5.65272 12.3047 5.53273 11.663 5.53273 11C5.53273 10.3369 5.65272 9.69524 5.84915 9.09636L5.84366 8.96881L2.774 6.63257L2.67357 6.67938C2.00792 7.98412 1.62598 9.44929 1.62598 11C1.62598 12.5507 2.00792 14.0158 2.67357 15.3205L5.86006 12.9036Z" fill="#FBBC05"></path><path d="M11.4467 5.09664C13.2909 5.09664 14.5349 5.87733 15.2443 6.52974L18.0161 3.8775C16.3138 2.32681 14.0985 1.375 11.4467 1.375C7.60539 1.375 4.28792 3.53526 2.67285 6.6794L5.84844 9.09638C6.64514 6.77569 8.84949 5.09664 11.4467 5.09664Z" fill="#EB4335"></path></svg>
