<svg width="10" height="11" viewBox="0 0 10 11" fill="none" xmlns="http://www.w3.org/2000/svg"><path d="M0.879751 10.0038L3.16823 9.67657C3.49833 9.62937 3.80424 9.47626 4.04003 9.24024L8.45886 4.81709C8.45886 4.81709 7.36911 4.81709 6.27936 3.72628C5.18961 2.63546 5.18961 1.54465 5.18961 1.54465L0.770776 5.9678C0.534986 6.20382 0.382033 6.51002 0.334876 6.84045L0.00795056 9.13116C-0.0646994 9.64021 0.371201 10.0765 0.879751 10.0038Z" fill="#1A202C"></path><path opacity="0.4" d="M9.5487 1.5446L8.45895 0.453784C7.8571 -0.148657 6.8813 -0.148657 6.27945 0.453784L5.1897 1.5446C5.1897 1.5446 5.1897 2.63542 6.27945 3.72623C7.3692 4.81705 8.45895 4.81705 8.45895 4.81705L9.5487 3.72623C10.1506 3.12379 10.1506 2.14704 9.5487 1.5446Z" fill="#1A202C"></path></svg>
